<?xml version="1.0" encoding="UTF-8" standalone="no"?>
<!-- Created with Inkscape (http://www.inkscape.org/) -->

<svg
   width="303.98163mm"
   height="197.50055mm"
   viewBox="0 0 303.98163 197.50055"
   version="1.1"
   id="svg1"
   xmlns="http://www.w3.org/2000/svg"
   xmlns:svg="http://www.w3.org/2000/svg">
  <defs
     id="defs1" />
  <g
     id="layer1"
     transform="translate(65.61667,-17.72708)">
    <path
       id="path2-4"
       style="fill:#000000"
       d="m -14.87582,105.23226 c -19.06258,0.11868 -39.65079,24.14287 -33.54111,47.81103 0.17975,0.69633 0.63586,2.4756 1.0139,3.95376 4.52534,17.69455 15.73991,29.22188 35.49447,36.48356 26.32274,9.67609 34.36224,14.02551 39.07048,21.13825 0.59634,0.90089 0.6772,0.87211 1.57562,-0.56173 2.34954,-3.74971 3.32455,-5.19252 5.26273,-7.78867 1.16661,-1.56263 2.80274,-3.62747 3.63595,-4.58835 1.96566,-2.26683 1.9706,-1.99924 -0.0718,-3.79873 -6.44555,-5.6788 -13.07517,-8.46618 -27.34355,-11.49646 -31.64519,-6.72069 -49.28732,-24.00331 -46.86484,-45.90986 2.32916,-21.06277 26.02701,-31.14571 32.39905,-13.7852 2.24872,6.12658 -2.0225,14.16354 -6.57479,12.37134 -3.89295,-1.53262 -1.83412,-8.13032 2.42828,-7.78144 0.85906,0.0703 0.90681,-0.27025 0.15606,-1.11776 -0.35188,-0.39725 -2.16275,-2.6739 -4.02404,-5.05912 -3.844,-4.92607 -3.61719,-4.86708 -6.96237,-1.81901 -13.30581,12.12398 -4.43295,32.21511 12.54652,28.40963 14.67035,-3.28794 18.99688,-28.86988 6.83369,-40.4058 -4.47869,-4.24773 -9.6967,-6.08868 -15.03422,-6.05545 z m -1.33015,3.41632 c 0.63444,0.0357 1.26973,0.34728 1.78749,1.03095 1.13512,1.49887 0.23772,4.24659 -1.52549,4.67051 -0.91314,0.21956 -2.33374,-0.37391 -2.77916,-1.16117 -1.28447,-2.2701 0.61384,-4.64727 2.51716,-4.54029 z m 7.44657,1.21905 c 0.3094,-0.0149 0.63399,0.0361 0.96635,0.16692 2.99723,1.17998 1.5685,6.16356 -1.56993,5.47615 -0.43193,-0.0946 -0.92622,-0.30223 -1.09812,-0.46147 -1.88474,-1.74588 -0.46409,-5.07716 1.7017,-5.1816 z m -15.13809,0.76223 c 0.82909,0.0435 1.46952,0.58118 1.91719,1.61024 1.35489,3.11444 -2.8315,5.84291 -4.52427,2.94865 -0.97983,-1.67525 -0.12571,-3.88515 1.71514,-4.43745 0.318,-0.0954 0.61557,-0.13594 0.89194,-0.12144 z m 21.38939,4.35684 c 0.28245,0.01 0.573,0.0681 0.8661,0.18345 0.80605,0.31733 1.06477,0.59071 1.38958,1.46916 1.20993,3.27239 -3.06654,5.6392 -4.70876,2.60604 -1.08188,-1.99822 0.47594,-4.32625 2.45308,-4.25865 z m -28.67525,0.46612 c 1.18675,0.0112 2.32307,0.85794 2.46703,2.26188 0.25654,2.50153 -2.03363,4.19341 -4.0752,3.01067 -1.29493,-0.75017 -1.4914,-2.99299 -0.37931,-4.32997 0.54507,-0.6553 1.27543,-0.94932 1.98748,-0.94258 z m -5.60638,6.1774 c 0.62699,0.004 1.26686,0.27185 1.81178,0.89504 1.21897,1.39404 0.59307,3.82917 -1.18288,4.60178 -1.06692,0.46416 -2.47844,0.0196 -3.02927,-0.95394 -1.24759,-2.20491 0.51939,-4.55642 2.40037,-4.54288 z m 38.35683,0.20826 c 0.27027,0.005 0.54493,0.0572 0.81701,0.16433 0.69915,0.27525 1.40923,1.6473 1.43247,2.7683 0.0595,2.87177 -3.84326,3.86146 -4.97438,1.26143 -0.84878,-1.95107 0.83301,-4.22903 2.7249,-4.19406 z m -17.65215,4.65294 c 1.36489,0.14857 2.48762,1.41814 2.05104,3.18895 -0.64242,2.60568 -3.14397,3.36362 -4.62918,1.4025 -0.77474,-1.023 -0.71492,-2.48118 0.14418,-3.51399 0.70878,-0.8521 1.61503,-1.1666 2.43396,-1.07746 z m -24.81244,2.94763 c 0.28022,0.0126 0.56807,0.0725 0.85783,0.18655 1.92589,0.75821 2.16923,3.36367 0.45424,4.86327 -1.24917,1.09227 -3.29313,0.66602 -3.94033,-0.82166 -0.91099,-2.09406 0.66673,-4.31659 2.62826,-4.22816 z m 42.67802,0.54208 c 0.60095,0.003 1.20449,0.25057 1.7079,0.82631 1.29601,1.48216 0.66772,4.1381 -1.12706,4.76353 -1.19133,0.41514 -2.60057,-0.16032 -3.14038,-1.28261 -1.02225,-2.12526 0.75667,-4.31626 2.55954,-4.30723 z m -21.17597,4.01888 c 1.66422,-0.008 3.0515,1.77112 2.24999,3.807 -0.68863,1.74917 -2.93417,2.49608 -4.09019,1.36064 -1.27657,-1.25384 -1.2039,-3.37259 0.15451,-4.50825 0.5455,-0.45606 1.13095,-0.65686 1.68569,-0.65939 z m 18.20509,3.73259 c 0.29365,0.003 0.59847,0.0647 0.90692,0.19637 2.63219,1.12343 1.83808,5.46724 -1.01027,5.52627 -1.26661,0.0263 -1.26951,0.0248 -1.9849,-0.91984 -1.48414,-1.95967 0.0327,-4.82309 2.08825,-4.8028 z m -41.61555,0.0134 c 2.82119,0.0331 3.45002,4.32336 0.80254,5.47511 -1.06608,0.46378 -2.52824,0.12656 -3.21324,-0.74104 -1.28699,-1.63003 0.30616,-4.75876 2.4107,-4.73407 z m 26.556,3.55534 c 0.30647,-0.001 0.6251,0.056 0.94878,0.18345 2.2141,0.87167 1.9332,4.70499 -0.40101,5.4715 -0.7566,0.24846 -2.18451,-0.17285 -2.67529,-0.78962 -1.56197,-1.96297 -0.0177,-4.85577 2.12752,-4.86533 z m 7.83157,0.8754 c 1.81538,-0.0697 3.06866,1.78174 2.27479,3.79821 -0.84325,2.14191 -3.53678,2.56249 -4.61419,0.72037 -0.9774,-1.67114 -0.24147,-3.76993 1.53118,-4.36614 0.27795,-0.0935 0.54888,-0.14249 0.80822,-0.15244 z m -33.923,3.93981 c 2.45303,0.23062 3.05693,4.06 0.57878,5.40173 -0.99816,0.54043 -2.58054,0.18905 -3.31039,-0.73535 -1.26099,-1.59713 0.0926,-4.44497 2.2164,-4.66277 0.1796,-0.0184 0.35168,-0.019 0.51521,-0.004 z m 1.49448,8.1256 c 2.11999,-0.15344 3.4778,2.42327 1.94821,4.56148 -1.01801,1.42307 -3.46486,1.37591 -4.29018,-0.0827 -0.93221,-1.64753 -0.3267,-3.48823 1.3932,-4.23644 0.32776,-0.14259 0.64592,-0.22044 0.94877,-0.24236 z m 2.84221,7.73183 c 1.93612,-0.29358 3.38813,1.6719 2.50992,3.9026 -0.84752,2.15274 -3.63493,2.41383 -4.67361,0.4377 -0.74822,-1.42352 -0.11758,-3.38361 1.30948,-4.07004 0.29096,-0.13995 0.57762,-0.22832 0.85421,-0.27026 z m 5.50095,6.79183 c 2.51974,0.24817 3.1059,4.26822 0.49558,5.4038 -1.37563,0.59845 -2.76252,0.0727 -3.28714,-1.2454 -0.74846,-1.88052 0.38553,-3.96282 2.2624,-4.1553 0.18479,-0.0189 0.36118,-0.0196 0.52916,-0.003 z m 5.13871,5.90351 c 1.58693,-0.10128 3.02784,1.40138 2.54041,3.35018 -0.57534,2.30028 -2.91287,3.14137 -4.45812,1.60404 -1.10394,-1.09826 -0.93699,-3.15179 0.34778,-4.27519 0.49542,-0.43319 1.04095,-0.64527 1.56993,-0.67903 z m 6.71122,4.30827 c 1.23163,0.0174 2.31334,0.92911 2.45463,2.30683 0.27256,2.65782 -2.71742,4.51092 -4.5098,2.79518 -1.34791,-1.29025 -0.90462,-3.94566 0.80253,-4.80539 0.41467,-0.20883 0.84209,-0.30241 1.25264,-0.29662 z m 7.00784,3.21427 c 0.47175,-0.0346 0.9652,0.0919 1.4428,0.43357 2.13047,1.52403 1.00869,5.35938 -1.58336,5.4131 -1.11009,0.023 -0.92358,0.0983 -1.71308,-0.69143 -1.82718,-1.82776 -0.19062,-5.00531 1.85364,-5.15524 z m 7.55871,3.31814 c 0.27723,0.0127 0.56279,0.0719 0.85008,0.18501 2.23906,0.88149 2.04603,4.52151 -0.28267,5.333 -1.2526,0.43649 -2.63577,-0.14595 -3.14916,-1.32601 -0.90579,-2.08207 0.64113,-4.28096 2.58175,-4.192 z m 7.76748,2.35283 c 2.23392,0.10282 3.22987,3.25558 1.11053,5.10873 -1.1757,1.02803 -2.88462,0.75447 -3.66954,-0.58756 -0.97741,-1.67115 -0.24149,-3.76993 1.53117,-4.36614 0.36417,-0.12248 0.70871,-0.16972 1.02784,-0.15503 z m 7.67861,2.37402 c 2.80313,-0.0581 3.47171,4.09329 0.86247,5.35523 -1.21158,0.58595 -2.12267,0.44494 -2.92902,-0.45321 -1.61292,-1.79657 -0.32469,-4.85246 2.06655,-4.90202 z m 7.63777,2.66495 c 0.28657,0.0196 0.58417,0.0858 0.88729,0.20516 2.00786,0.79048 1.92125,4.04163 -0.13746,5.15627 -1.20924,0.65471 -2.84717,0.1255 -3.3228,-1.07332 -0.90234,-2.27436 0.56702,-4.4254 2.57297,-4.28811 z m 7.36493,3.08767 c 2.07526,0.21611 3.20953,3.23919 1.12344,5.06325 -1.054,0.92162 -2.88209,0.741 -3.76049,-0.37155 -0.94948,-1.20259 -0.3637,-3.56337 1.07797,-4.34392 0.55112,-0.29839 1.08017,-0.39765 1.55908,-0.34778 z m 5.87251,4.55011 c 1.92783,-0.30855 3.46945,1.67372 2.60966,3.85764 -0.77998,1.98121 -3.37937,2.43766 -4.65812,0.81804 -0.99635,-1.26195 -0.35217,-3.61263 1.20458,-4.39663 0.28528,-0.14366 0.56847,-0.23498 0.84388,-0.27905 z" />
    <path
       id="path136-1"
       style="fill:#000000"
       d="m 28.886886,115.8621 c -3.35007,-0.0487 -6.67115,1.08884 -8.88318,3.21841 -7.61099,7.32726 -7.116,41.52303 -18.1497994,51.31211 -0.84694,0.7514 -1.55139989,1.39642 -1.56579989,1.43299 -0.0144,0.0366 1.13804989,0.60821 2.56108989,1.27072 3.846,1.79054 8.5186994,5.02403 10.0386594,6.94686 0.59468,0.7523 0.87392,0.69585 1.45934,-0.29507 0.76104,-1.28818 3.33488,-9.97776 3.98477,-13.45241 0.92451,-4.94283 0.6265,-4.43302 3.73518,-6.38359 1.5128,-0.94924 4.44128,-2.78774 6.50761,-4.08554 6.05461,-3.80272 6.4284,-4.01805 6.52828,-3.75584 0.557,1.46236 0.47644,11.58787 -0.10903,13.6958 -0.51566,1.85662 -0.73624,1.78294 2.98844,0.99426 1.69736,-0.3594 4.67784,-0.79619 6.62337,-0.971 4.09503,-0.36795 3.95839,-0.3343 3.61322,-0.90227 -1.39909,-2.30221 -4.53982,-16.85373 -5.71231,-26.46609 -2.00426,-16.43106 -3.33235,-19.59132 -9.13536,-21.73924 -1.43316,-0.53046 -2.96173,-0.79796 -4.48448,-0.8201 z m -1.18856,1.91668 c 2.05363,-0.0426 3.17526,2.22895 2.07532,4.20284 -0.94086,1.6884 -3.09717,2.02594 -4.21834,0.65991 -1.5042,-1.83274 -0.19019,-4.81439 2.14302,-4.86275 z m 7.24142,2.42465 c 1.94874,0.0992 2.99913,2.44426 1.87275,4.50722 -0.98739,1.80838 -3.88603,1.5483 -4.54391,-0.40772 -0.6617,-1.9674 0.41001,-3.89792 2.26963,-4.08864 0.13752,-0.0141 0.27161,-0.0175 0.40153,-0.0109 z m -13.67049,2.05466 c 1.44717,-0.12798 2.96005,1.05148 2.73472,3.05459 -0.28484,2.53207 -3.1163,3.60064 -4.64106,1.75183 -0.64022,-0.77629 -0.72032,-1.80521 -0.23823,-3.05976 0.43132,-1.1225 1.27627,-1.66987 2.14457,-1.74666 z m 7.06365,3.66282 c 2.06901,0.2035 3.72283,3.08737 4.54495,8.11217 0.72116,4.40772 1.08958,3.86988 -5.19659,7.5799 -5.9733,3.52537 -5.92174,3.50847 -5.71903,1.8712 0.0785,-0.63379 0.18644,-1.71109 0.2403,-2.39365 0.65594,-8.31441 2.36532,-13.79783 4.63693,-14.87558 0.51659,-0.24509 1.01598,-0.341 1.49344,-0.29404 z m 8.58398,1.75649 c 1.54085,-0.0751 2.75565,1.27654 2.54144,3.18068 -0.28329,2.5183 -3.24885,3.53352 -4.68705,1.60455 -1.03058,-1.38224 -0.47824,-3.76879 1.04025,-4.4943 0.37676,-0.18001 0.74977,-0.27361 1.10536,-0.29093 z m -17.52245,2.21381 c 1.15001,0.0429 2.22074,0.82978 2.36161,2.20349 0.29473,2.87396 -2.57322,4.5821 -4.48344,2.67064 -0.8079,-0.80843 -0.95441,-2.51584 -0.30489,-3.55069 0.58991,-0.93989 1.53227,-1.35678 2.42672,-1.32344 z m 18.70222,5.41311 c 1.91691,-0.12301 3.24928,2.24149 2.06964,4.35839 -1.08259,1.94275 -3.41222,1.97351 -4.44882,0.0589 -0.84624,-1.563 -0.15179,-3.47382 1.52755,-4.20439 0.29209,-0.12707 0.57779,-0.19534 0.85163,-0.21291 z m -20.10575,2.34611 c 0.30814,-0.0119 0.62979,0.0396 0.95705,0.16847 2.95371,1.16284 1.50364,6.13279 -1.59629,5.47098 -0.4328,-0.0924 -0.98212,-0.359 -1.22059,-0.59221 -1.79679,-1.75753 -0.29713,-4.96363 1.85983,-5.04724 z m 15.29002,2.83187 c 0.0735,-0.007 0.13085,0.001 0.17674,0.0222 0.208,0.0951 0.37205,0.94055 0.34416,1.06143 -0.25847,1.12006 -12.07751,7.61971 -12.28814,7.31945 -0.0679,-0.0968 -0.0749,-0.99168 0.0305,-1.22008 0.24124,-0.52305 1.32378,-1.15236 6.14175,-4.0628 3.77005,-2.27742 5.08036,-3.0701 5.595,-3.12022 z m 5.72782,2.80603 c 0.64505,-0.0516 1.32581,0.16514 1.93735,0.75913 1.66565,1.61782 0.52616,4.74126 -1.81746,4.9816 -1.12522,0.11539 -1.3852,-0.002 -2.10427,-0.95136 -1.56183,-2.06225 0.0492,-4.63453 1.98438,-4.78937 z m -22.30458,2.35076 c 0.27791,-0.002 0.56444,0.0491 0.85317,0.16278 1.59749,0.62891 2.11614,2.06601 1.39992,3.87832 -0.79282,2.00564 -3.51595,2.3603 -4.54753,0.59221 -1.16974,-2.00492 0.34907,-4.62004 2.29444,-4.63331 z m 14.87764,0.34778 c 0.58945,-0.0122 1.19548,0.20363 1.7291,0.72192 1.21823,1.18327 1.10305,3.16213 -0.25322,4.34806 -1.24917,1.09227 -3.29312,0.66654 -3.94033,-0.82114 -0.92403,-2.12407 0.69609,-4.21225 2.46445,-4.24884 z m -8.14472,4.60231 c 1.58989,0.004 2.89561,1.63113 2.39572,3.3047 -0.79432,2.65927 -3.15718,3.31846 -4.68137,1.30587 -1.1629,-1.53554 -0.31566,-3.9362 1.59112,-4.50825 0.23428,-0.0703 0.4674,-0.10289 0.69453,-0.10232 z m 16.89509,0.58342 c 0.64124,0.0616 1.26986,0.41579 1.757,1.16427 1.01345,1.55714 0.0899,4.20299 -1.60972,4.61161 -0.91314,0.21955 -2.3337,-0.374 -2.77916,-1.16117 -1.3293,-2.34932 0.70816,-4.79944 2.63188,-4.61471 z m -25.36486,2.31976 c 0.30142,0.003 0.61526,0.0625 0.93431,0.1881 2.3717,0.93372 2.10709,4.5401 -0.39481,5.38158 -1.18611,0.39893 -1.8524,0.17415 -2.6665,-0.90072 -1.49004,-1.96732 0.017,-4.69179 2.127,-4.66896 z m 26.30124,5.25756 c 0.64302,0.015 1.29979,0.2964 1.85983,0.93689 0.66508,0.76062 0.74361,1.82791 0.22996,3.13263 -0.78181,1.98582 -3.46631,2.26602 -4.516,0.47129 -1.3072,-2.23502 0.49713,-4.58594 2.42621,-4.54081 z m -28.20965,2.25102 c 0.62047,-0.0166 1.24934,0.22558 1.77715,0.82373 0.77009,0.8727 0.89281,1.80403 0.40411,3.06234 -0.8524,2.19488 -3.47838,2.56709 -4.59868,0.65164 -1.2316894,-2.1059 0.556,-4.48779 2.41742,-4.53771 z m -2.81068,7.36079 c 1.64867,0.0181 3.0425,1.71128 2.17093,3.83853 -0.77726,1.89702 -2.7893897,2.51437 -4.1015594,1.25832 -1.02924,-0.98521 -1.16807,-2.9072 -0.28681,-3.96668 0.66585,-0.8005 1.4680497,-1.13837 2.2174394,-1.13017 z" />
    <path
       id="path139-5"
       style="fill:#000000"
       d="m 50.751695,117.91882 c -1.38616,0.85989 1.00236,3.36923 0.91777,4.93716 2.27387,9.38537 2.60014,19.14033 2.25051,28.75432 -0.25765,5.82092 -0.98837,11.66525 -2.9006,17.19327 1.5353,-0.12267 3.0681,-0.27543 4.60179,-0.41651 3.30243,-0.35568 6.63151,-0.34332 9.94048,-0.43202 -0.39093,-1.49911 -1.45435,-3.57184 -1.5937,-5.44256 -1.81124,-10.26471 -1.32943,-20.73258 -1.09141,-31.09939 0.0706,-1.87557 -0.3381,-4.88878 2.44275,-3.55173 3.67532,0.79604 7.68268,1.25016 10.80502,3.52279 2.24981,1.91929 3.35705,6.04608 0.79427,8.18038 -2.97106,2.24637 -7.16721,0.60909 -9.31158,-2.01022 -0.78316,-0.93206 -2.03356,-2.74484 -1.69085,-0.34571 -0.34896,3.36479 -0.98957,6.8902 -0.0191,10.20299 1.3224,2.80447 6.92348,4.27906 10.6686,3.80235 4.43074,-0.56397 9.20851,-3.46731 11.09286,-7.51685 2.1847,-4.69498 2.43886,-9.37336 -1.61592,-15.45074 -2.82233,-4.61019 -8.00219,-7.0072 -13.1222,-8.04653 -7.27928,-1.60276 -14.75878,-1.80086 -22.16867,-2.281 z m 13.93817,2.31304 c 0.31133,-0.011 0.63768,0.0389 0.97307,0.16123 2.4745,0.92475 2.20934,4.95173 -0.34365,5.61826 -1.01435,0.35934 -2.16295,-0.0205 -2.85616,-0.81339 -1.3932,-1.84274 0.0474,-4.8889 2.22674,-4.9661 z m -7.16907,0.60151 c 0.50079,0.0297 1.01381,0.23461 1.49655,0.67076 2.39833,1.92766 -0.13576,6.1906 -2.94401,5.17178 -0.38933,-0.20412 -0.6861,-0.54223 -0.9493,-0.88522 -1.7169,-1.9216 0.22666,-5.08589 2.39676,-4.95732 z m 14.41772,0.82941 c 0.44085,-0.0416 0.90325,0.0462 1.36013,0.30334 2.38352,1.28037 1.38625,4.98738 -1.0232,5.53558 -1.04223,0.26697 -2.13442,-0.33949 -2.59984,-1.28003 -1.14872,-1.7706 0.35256,-4.37877 2.26291,-4.55889 z m 6.69882,2.83652 c 0.31383,-0.029 0.64495,0.005 0.98702,0.11368 2.96132,0.88813 2.00062,5.69255 -0.99684,5.6441 -0.65065,0.0231 -1.28992,-0.24205 -1.76837,-0.67489 -1.76268,-1.62372 -0.41866,-4.87967 1.77819,-5.08289 z m -20.43338,4.31291 c 0.33437,0.0224 0.67687,0.11875 1.01802,0.30438 2.78532,1.4163 1.04986,6.12655 -1.973,5.59604 -0.58145,0.047 -0.97016,-0.44165 -1.34255,-0.79789 -1.96937,-1.79522 -0.0431,-5.25939 2.29753,-5.10253 z m 25.05118,1.79162 c 0.4519,0.0175 0.91255,0.17961 1.34824,0.52917 2.49633,1.66 0.28656,6.25452 -2.55126,5.2219 -0.61818,-0.22928 -1.10423,-0.73301 -1.3932,-1.31671 -1.15238,-1.87129 0.63798,-4.5104 2.59622,-4.43436 z m -24.98555,6.28644 c 0.44519,0.004 0.8995,0.13892 1.3317,0.4439 2.0448,1.51311 1.1604,5.39083 -1.49913,5.52731 -1.13028,0.17951 -2.10248,-0.64288 -2.48512,-1.64951 -1.02798,-1.87446 0.72339,-4.33671 2.65255,-4.3217 z m 24.03161,1.06919 c 0.48869,0.0384 0.98967,0.24619 1.46192,0.67541 2.34409,1.79792 0.16086,5.66722 -2.55901,5.06222 -0.54267,-0.12016 -0.98442,-0.50919 -1.2852,-0.9617 -1.62709,-1.93099 0.26463,-4.9424 2.38229,-4.77593 z m -12.56409,3.40961 c 0.2804,0.005 0.56675,0.0571 0.85214,0.16433 2.60866,0.9969 1.83407,5.46559 -0.95756,5.61103 -1.13274,0.16039 -2.22826,-0.58135 -2.61587,-1.63401 -0.91731,-1.89777 0.75843,-4.17621 2.72129,-4.14135 z m 7.34632,2.02261 c 0.15606,0.0127 0.31446,0.0401 0.4749,0.0832 2.42602,0.9686 2.25623,5.04552 -0.34364,5.73299 -1.03338,0.36064 -2.15595,-0.12664 -2.75539,-0.99736 -1.47558,-1.92645 0.28325,-5.00951 2.62413,-4.81883 z m -18.35961,1.27744 c 0.63867,0.0205 1.26431,0.31531 1.75494,0.99116 1.50719,1.96502 -0.22152,5.44078 -2.77141,4.98987 -0.82355,-0.1868 -1.43503,-0.875 -1.75287,-1.6278 -1.17603,-2.00637 0.85335,-4.41485 2.76934,-4.35323 z m -0.0884,7.80573 c 0.62629,-0.0337 1.26132,0.17198 1.80402,0.709 1.93531,2.05513 -0.26694,6.1648 -3.08301,5.07928 -0.65982,-0.27031 -1.13249,-0.85952 -1.39992,-1.50275 -1.00081,-1.92835 0.80002,-4.18441 2.67891,-4.28553 z m -0.17622,7.73131 c 0.14676,0.0114 0.29548,0.0358 0.44597,0.0734 2.6699,0.67443 2.49413,4.974 -0.0744,5.72316 -1.21702,0.52877 -2.72543,-0.0564 -3.19257,-1.31568 -1.08557,-1.99065 0.61961,-4.65196 2.82102,-4.48086 z" />
    <g
       id="g2"
       transform="translate(-137.27049,120.33812)">
      <path
         id="path142"
         style="fill:#000000;stroke:#000000;stroke-width:0.382804;stroke-linecap:square;stroke-dasharray:none;stroke-dashoffset:11.5056;stroke-opacity:0.956647"
         d="m 231.0159,-12.302242 c -9e-5,3.9158101 2.54672,5.9366832 6.4102,5.936495 3.86328,-9.17e-5 6.41105,-1.8667208 6.41097,-5.782333 10e-5,-4.833086 -2.95865,-6.670362 -6.44686,-6.609802 -3.2029,0.05561 -6.37441,2.01787 -6.37431,6.45564 z m 9.51918,0.746343 c 0,1.6621786 -1.08288,3.2080786 -2.74506,3.2080716 -1.66218,2e-6 -3.27421,-1.545897 -3.27421,-3.2080716 -10e-6,-3.935376 6.01928,-3.935381 6.01927,0 z" />
      <path
         id="path140-4"
         style="fill:#000000"
         d="m 245.82888,-3.9372341 c -1.38604,-0.1698442 -5.32874,3.46721546 -9.05543,3.50212235 -2.46193,0.0230602 -7.03051,-0.82067135 -7.14635,-0.80880635 -0.11583,0.01187 -0.22941,0.06138 -0.25373,0.25734901 -0.0286,0.230872 1.74635,2.44777299 2.31717,4.34443719 0.53174,1.7667909 0.69042,7.1162319 0.69557,15.8031709 -9.4e-4,10.828152 -2.35494,28.327388 -3.01274,34.914531 0,0 4.7721,-0.634357 7.40008,-0.593678 2.62798,0.04068 8.29457,0.924584 8.29457,0.924584 -4.12076,-13.724408 -4.27207,-35.927661 -2.68407,-50.2088659 0.4263,-1.6223988 1.58624,-4.16542319 2.22105,-5.4415282 0.71759,-1.471782 1.4479,-2.665865 1.22388,-2.693316 z m -8.55625,6.5866183 c 1.71297,8.83e-5 2.70469,0.9665959 2.70475,2.6484172 -1.3e-4,3.9819489 -5.80624,4.3788241 -5.80637,0.396875 5e-5,-1.6818213 1.38865,-3.0452039 3.10162,-3.0452922 z m -0.14831,9.4071788 c 0.86304,-0.06377 1.6044,0.290386 2.13269,1.037146 1.98807,2.810257 -1.57185,6.435642 -4.07521,4.150134 -1.48941,-1.359789 -0.88016,-4.272846 1.04232,-4.983675 0.3112,-0.115068 0.61252,-0.182351 0.9002,-0.203605 z m -0.0248,8.349878 c 2.373,-0.09859 3.7251,3.465685 1.39217,5.284432 -1.38083,1.076489 -3.23223,0.622557 -3.92121,-0.961182 -0.73403,-1.687268 -0.16715,-3.259868 1.45728,-4.041097 0.37291,-0.179344 0.73276,-0.268069 1.07176,-0.282153 z m -0.10076,8.48372 c 1.66282,0.04137 3.04965,1.994164 2.21123,4.123779 -0.59745,1.517579 -2.63313,2.347723 -3.72639,1.519804 -1.74448,-1.321069 -1.81885,-3.539667 -0.16743,-4.983675 0.54338,-0.47513 1.12831,-0.673698 1.68259,-0.659908 z m -0.22531,8.505941 c 0.97592,-0.0315 1.96458,0.542729 2.48098,1.824694 1.29025,3.203087 -3.094,5.708093 -4.77542,2.728516 -0.25472,-0.451389 -0.4257,-1.190908 -0.37982,-1.643827 0.18508,-1.826869 1.4195,-2.868886 2.67426,-2.909383 z m 0.51469,8.161259 c 2.31151,0.111205 3.44533,3.356587 1.3038,5.229138 -0.53559,0.468339 -2.38735,0.866679 -2.68769,0.578259 -0.032,-0.0307 -0.25883,-0.19684 -0.50385,-0.36897 -1.84592,-1.296778 -1.33362,-4.552785 0.83096,-5.280814 0.37217,-0.125175 0.72657,-0.1735 1.05678,-0.157613 z" />
    </g>
    <path
       style="fill:#000000"
       d="m 108.86908,123.342 c 0.37931,0.11382 1.02675,-0.21543 1.68109,-0.54782 4.12492,-2.09532 15.106,-4.6038 15.2907,-3.46611 0.0215,0.13253 0.0788,2.30387 0.12723,4.82522 0.0485,2.52136 0.10247,4.97381 0.12001,5.44989 0.0175,0.47608 0.0317,2.52898 0.0315,4.56201 -0.002,17.81304 -1.00867,37.35881 -2.06271,40.03614 -0.2901,0.73687 0.0463,0.54258 2.13148,-1.23086 2.83595,-2.41202 6.41292,-4.73599 9.24609,-6.0072 2.65321,-1.19047 2.65321,-1.19047 2.05313,-2.50546 -2.14921,-4.7097 -2.80125,-16.26134 -1.95821,-34.69202 0.39921,-8.7275 0.5708,-10.90336 0.87009,-11.03321 0.69781,-0.30276 11.16804,-0.45745 15.48531,-0.22878 1.13459,0.0601 1.13252,0.068 0.45491,-1.74004 -0.3094,-0.82557 -1.07626,-3.14142 -1.70414,-5.14633 -1.1416,-3.64528 -1.1416,-3.64528 -2.31259,-3.29289 -1.43293,0.43123 -11.43533,1.43158 -16.17076,1.61724 -8.58366,0.33655 -16.31599,0.11691 -17.92679,-0.50923 -0.67812,-0.26375 -2.12914,3.42192 -3.58016,7.10759 -1.45101,3.68567 -1.77618,6.80186 -1.77618,6.80186 z m 20.26498,42.65828 c -1.84593,-1.29678 -1.33347,-4.55324 0.83111,-5.28127 2.97739,-1.0014 4.80782,2.93163 2.36035,5.07169 -0.53559,0.46834 -2.38742,0.86687 -2.68776,0.57845 -0.032,-0.0307 -0.25868,-0.19674 -0.5037,-0.36887 z m -0.92126,-9.04647 c -0.25472,-0.45139 -0.42559,-1.19127 -0.37971,-1.64419 0.32903,-3.24777 3.97446,-4.01473 5.15481,-1.08452 1.29025,3.20309 -3.09368,5.70829 -4.7751,2.72871 z m 1.00452,-7.41593 c -1.74448,-1.32107 -1.81913,-3.53953 -0.16771,-4.98354 2.17352,-1.90052 5.01182,0.6241 3.89393,3.46359 -0.59745,1.51758 -2.63296,2.34787 -3.72622,1.51995 z m -0.91339,-9.80391 c -0.73403,-1.68727 -0.16684,-3.25969 1.45759,-4.04092 2.98332,-1.43475 5.12987,2.92332 2.46366,5.00189 -1.38083,1.07649 -3.23227,0.62277 -3.92125,-0.96097 z m 0.61149,-7.48588 c -1.48941,-1.35979 -0.88016,-4.27268 1.04232,-4.98351 1.24483,-0.46027 2.32877,-0.16253 3.03315,0.83315 1.98808,2.81026 -1.57211,6.43587 -4.07547,4.15036 z m -0.41264,-8.77459 c -0.42955,-0.9874 -0.43926,-1.33993 -0.0632,-2.29518 1.2579,-3.19512 5.55029,-2.19675 5.18932,1.207 -0.31829,3.00121 -3.95778,3.77381 -5.12613,1.08818 z m -14.35218,-6.53269 c -0.27871,-0.33227 -0.53753,-1.05617 -0.57516,-1.60868 -0.22709,-3.33392 3.83943,-4.64917 5.13892,-1.66211 1.30736,3.00516 -2.49862,5.73285 -4.56376,3.27079 z m 7.4439,-0.21495 c -0.29149,-0.34706 -0.56997,-1.02102 -0.61885,-1.49771 -0.35376,-3.44954 3.9486,-4.861 5.13861,-1.68581 1.12555,3.00319 -2.51659,5.56854 -4.51976,3.18352 z m 7.60925,-0.14577 c -1.3687,-1.50627 -0.709,-4.08818 1.23026,-4.815 1.14509,-0.42915 1.99466,-0.19955 2.84034,0.7676 2.35714,2.69571 -1.66495,6.69486 -4.0706,4.0474 z m 7.13785,-0.87147 c -0.86603,-1.30833 -0.61146,-3.11825 0.58588,-4.1652 1.3191,-1.15342 3.21713,-0.67938 4.0708,1.01669 1.47855,2.93756 -2.85624,5.86842 -4.65668,3.14851 z m 7.44432,-0.72009 c -0.87552,-2.01251 0.40017,-4.12745 2.51605,-4.17131 3.19037,-0.0661 3.63537,4.82828 0.52386,5.76174 -1.30001,0.39001 -2.43718,-0.20493 -3.03991,-1.59043 z"
       id="path140-6" />
    <path
       style="fill:#000000"
       d="m 194.90589,199.31059 c -1.96711,-2.24201 -5.63592,-7.40619 -7.61671,-10.72122 -2.82344,-4.72529 -7.65707,-16.80175 -9.52803,-23.80515 -0.88859,-3.32616 -1.01247,-3.52492 -2.71645,-4.35881 -0.53131,-0.26 -1.38509,-0.76133 -1.89731,-1.11406 -2.75259,-1.89552 -13.59319,-8.29027 -13.78369,-8.13085 -1.23809,1.03609 0.34811,13.19813 2.02348,15.51487 0.50273,0.6952 0.50273,0.6952 -3.14643,0.31392 -4.49736,-0.46989 -9.60707,-0.70613 -11.23889,-0.51962 -1.76775,0.20204 -1.79077,0.17272 -0.88273,-1.12451 1.74191,-2.48849 2.79767,-6.75436 3.84578,-15.5392 0.13705,-1.14869 0.46878,-3.9664 0.73719,-6.26156 2.67632,-22.88543 5.06987,-27.39983 14.40355,-27.16613 9.02748,0.22603 13.1728,5.01634 15.98518,18.47237 3.8141,18.24891 9.24448,35.074 13.39497,41.50196 3.972,6.15152 8.1498,10.38962 12.06693,12.2411 1.20511,0.5696 1.12466,0.67959 -2.36557,3.23416 -4.49296,3.28849 -7.74673,6.38995 -7.96337,7.5906 -0.10858,0.60174 -0.73071,0.54138 -1.3179,-0.12787 z m 4.06752,-6.83986 c 2.04284,-2.24698 -0.28555,-5.95195 -3.05524,-4.86155 -2.7076,1.06597 -1.998,5.4595 0.93027,5.75979 1.04784,0.10747 1.31225,-0.004 2.12496,-0.89826 z m -5.15425,-6.59769 c 1.80871,-2.40311 -0.50331,-5.76982 -3.22617,-4.69786 -2.13095,0.83894 -2.09452,4.33185 0.0559,5.35569 1.29448,0.61633 2.38101,0.39087 3.17032,-0.65783 z m -3.71133,-7.43048 c 1.03043,-1.76536 0.39804,-3.88129 -1.39286,-4.66041 -2.66387,-1.15888 -4.66507,1.87991 -2.93253,4.45296 0.99397,1.47617 3.51428,1.59705 4.32539,0.20745 z m -3.94009,-7.11309 c 1.7467,-1.29554 1.80792,-3.5333 0.13664,-4.99467 -1.65353,-1.44585 -4.05297,-0.28831 -4.23906,2.04501 -0.1866,2.33973 2.40879,4.20584 4.10242,2.94966 z m -1.82654,-8.3092 c 0.97137,-1.15807 0.76883,-3.19744 -0.42086,-4.23771 -1.48206,-1.2959 -3.30547,-0.96219 -4.17483,0.76408 -1.50082,2.98015 2.48356,5.99171 4.59569,3.47363 z m -2.108,-8.00131 c 0.95042,-1.4358 0.56094,-3.36157 -0.88113,-4.35665 -2.37627,-1.63969 -4.99502,0.81978 -3.88461,3.64834 0.76052,1.93722 3.66637,2.36912 4.76574,0.70831 z m -26.41719,8.40844 c 1.0258,-1.22134 0.76919,-3.31139 -0.54797,-4.46312 -1.78114,-1.55742 -4.4459,-0.0395 -4.3055,2.45251 0.15185,2.69506 3.21338,3.96334 4.85347,2.01061 z m 18.19177,-9.30604 c 0.82416,-2.08578 -1.08495,-4.682 -3.09743,-4.21221 -2.69131,0.62824 -2.94974,4.51095 -0.3748,5.63115 1.44564,0.62891 2.89749,0.0356 3.47224,-1.41891 z m 6.46803,-7.90189 c 1.29095,-2.96742 -2.39257,-5.88181 -4.45418,-3.52409 -0.94132,1.07653 -0.99895,2.12532 -0.21286,3.87342 0.80268,1.78499 3.83735,1.55784 4.66704,-0.34933 z m -23.67628,8.46304 c 0.55007,-1.26443 0.32385,-2.61649 -0.5963,-3.56384 -2.49713,-2.57093 -5.92839,0.66738 -3.98609,3.76195 1.18981,1.89566 3.71908,1.78632 4.58239,-0.19811 z m 16.69831,-8.46304 c -0.40965,-0.83097 -1.89993,-1.56398 -8.34434,-5.28771 -2.97693,-1.72014 -4.00123,-2.30895 -4.37018,-2.19499 -0.32832,0.1014 -0.25086,1.36069 -0.2258,1.43971 0.15423,0.4863 0.76474,0.82906 2.64247,1.91193 1.36572,0.7876 2.90177,1.68282 3.41344,1.98938 1.12625,0.67482 6.63981,3.96479 7.0112,3.92078 0.20755,-0.18231 0.0201,-1.48106 -0.12679,-1.7791 z m -7.90825,4.15155 c 0.73753,-0.97384 0.83671,-1.71269 0.38417,-2.86215 -0.94512,-2.40067 -3.63769,-2.7743 -4.7806,-0.66334 -1.7049,3.14891 2.26851,6.33519 4.39643,3.52549 z m 6.88367,-7.55813 c -0.16929,-4.25919 -3.74559,-14.34006 -5.49813,-15.49809 -2.72573,-1.80108 -4.261,-0.33751 -5.4755,5.2198 -0.92597,4.23704 -0.94917,4.12261 1.07243,5.28956 0.92665,0.5349 2.67027,1.54426 3.8747,2.24302 3.72023,2.15831 6.04525,3.21761 6.0265,2.74571 z m 5.38703,-3.17627 c 0.84941,-0.53399 1.38215,-2.48265 0.96701,-3.53713 -1.19461,-3.03437 -5.27222,-2.35112 -5.32946,0.89301 -0.0389,2.2057 2.55702,3.77912 4.36245,2.64412 z m -20.85019,7.85531 c 1.54899,-1.49378 1.02328,-4.34637 -0.9345,-5.07076 -3.11042,-1.15085 -5.06575,2.75583 -2.50153,4.99798 1.04152,0.91071 2.53434,0.94234 3.43603,0.0728 z m 1.19943,-8.31995 c 1.02414,-1.22805 0.76754,-3.31484 -0.54918,-4.46618 -1.89132,-1.65377 -4.71418,0.22231 -4.24727,2.82273 0.40711,2.26728 3.41633,3.29836 4.79645,1.64345 z m 18.17525,-8.18334 c 1.20388,-2.05836 -0.0761,-4.69941 -2.29651,-4.73859 -1.09245,-0.0193 -1.9106,0.58722 -2.44297,1.81098 -1.3064,3.00295 3.10256,5.72639 4.73948,2.92761 z m -16.71246,-0.49336 c 0.9214,-1.79075 0.0976,-3.84882 -1.76426,-4.40734 -3.26583,-0.97976 -4.67113,4.186 -1.51257,5.56009 1.56094,0.67907 2.50516,0.34691 3.27678,-1.15273 z m 11.95715,-6.17833 c 2.08226,-3.02618 -1.71642,-6.51625 -4.24455,-3.8997 -1.1944,1.23618 -0.60598,3.82805 1.05432,4.64407 1.34401,0.66057 2.39172,0.4161 3.19023,-0.74437 z m -8.03239,0.10099 c 1.07929,-1.02384 1.16304,-2.99444 0.17764,-4.17911 -2.44358,-2.93771 -6.30543,0.5463 -4.07388,3.67528 0.91719,1.28603 2.81324,1.53121 3.89624,0.50383 z"
       id="path137-9" />
    <path
       id="path1"
       style="fill:#000000;stroke-width:1.01655"
       d="m -7.4089878,35.761474 c -5.5324702,0.240149 -9.7860502,4.049202 -12.9173002,10.140625 -2.8795,5.601663 -3.9247,13.03098 -3.34093,21.679787 0.26921,3.988535 2.27259,21.746461 16.3940602,21.546472 5.58052,0.07903 9.34438,-2.466053 12.17942,-7.99082 2.33715,-4.554494 4.01562,-10.875606 4.01306,-18.104637 -0.0947,-4.324826 -0.68875,-14.046665 -5.00591,-20.638711 -2.41772,-3.691704 -6.0031,-6.401821 -11.3224,-6.632716 z m -6.6363202,6.478723 c 5.0374002,0.294025 1.36989,8.769974 -2.21368,4.894896 -1.33637,-1.680578 -0.0938,-4.977249 2.21368,-4.894896 z m 13.27264021,0 c 2.30749999,-0.08235 3.55003999,3.214318 2.21367999,4.894896 -3.58357,3.875078 -7.25108,-4.600871 -2.21367999,-4.894896 z m -6.82619001,3.27935 c 2.05885,0.03329 3.71066,3.051608 4.38104,4.703806 0.32105,0.943536 0.60494,1.899545 0.85836,2.863498 -0.26626,0.978229 -9.1972302,5.402555 -10.9841202,4.421742 -0.36055,-0.19791 0.36649,-4.180187 1.61683,-7.854863 0.67038,-1.652198 2.0690402,-4.100894 4.1278902,-4.134183 z m -9.9123702,4.584117 c 3.8433,0.06982 2.68256,6.772231 -0.98916,5.676041 -3.00355,-0.858268 -2.22366,-5.890068 0.98916,-5.676041 z m 19.8716402,-0.04754 c 3.21283,-0.214027 3.99272,4.817773 0.98917,5.676041 -3.67172999,1.09619 -4.83247,-5.606224 -0.98917,-5.676041 z m -4.22764,6.039216 c -0.10698,0.425913 -6.57477,3.6962 -9.3426602,5.046342 -1.52715,0.74492 -2.46304,0.567229 -2.5283,0.33285 -0.0133,-0.319093 0.0307,-1.558569 0.15231,-1.80108 0.19174,-0.382255 2.57982,-0.469582 6.4117502,-2.596219 2.99849,-1.664118 4.78576,-1.915932 5.19509,-1.952555 z m -18.3576802,2.612249 c 2.68998,-0.705276 3.66247,-0.162263 4.1241,1.883478 0.10678,2.280592 -2.22374,5.061056 -4.8313,2.489299 -1.09247,-1.419458 -1.00412,-3.597304 0.7072,-4.372777 z m 16.1495702,0.112116 c 0.46881,-0.0089 0.95034,0.148697 1.37476,0.527418 0.96893,0.864616 0.87698,2.310552 -0.20172,3.177111 -0.99353,0.798122 -2.61876,0.48659 -3.13351,-0.600436 -0.73494,-1.552058 0.55403,-3.077357 1.96047,-3.104093 z m -6.4787202,3.362549 c 1.2645002,0.0029 2.3034202,1.191993 1.9058502,2.414877 -0.63177,1.943108 -2.5111902,2.424582 -3.7234402,0.953974 -0.9249,-1.122019 -0.25103,-2.87626 1.26548,-3.294257 0.18636,-0.05137 0.37146,-0.075 0.55211,-0.07459 z m 9.59562021,1.538577 c 0.0113,2.736608 -0.24324001,5.47409 -0.77221001,8.161837 -0.20285,3.01354 -2.31047,6.669878 -5.67834,6.681568 -4.3951602,-0.458649 -5.5786902,-6.259943 -6.1379702,-9.807379 1.36354,-0.80165 7.2874602,-4.148909 12.58852021,-5.036026 z M -18.449888,67.665588 c 0.14868,-0.0039 0.30025,0.004 0.45335,0.02469 5.54096,0.581491 1.29372,8.335578 -2.3655,4.483572 -1.95063,-1.747772 -0.31796,-4.450091 1.91215,-4.508262 z M 3.6318922,67.095034 c 2.23011,0.05817 3.86278,2.760489 1.91216,4.508262 -3.65922,3.852006 -7.90646,-3.902081 -2.3655,-4.483573 0.1531,-0.02073 0.30466,-0.02855 0.45334,-0.02469 z m -18.9148402,9.391577 c 3.67008,0.144554 3.73741,6.552762 -0.58783,5.533155 -3.43859,-0.415674 -3.24678,-5.538553 0.22168,-5.527377 0.12587,-0.0088 0.24775,-0.01042 0.36615,-0.0058 z M 1.0355322,74.917586 c 0.1184,-0.0047 0.24027,-0.003 0.36614,0.0058 3.46847,-0.01117 3.66027,5.111702 0.22169,5.527376 -4.32525,1.019608 -4.25792,-5.3886 -0.58783,-5.533155 z m -10.77299,10.715311 c -0.0582,-0.103288 -0.11143,-0.212896 -0.16022,-0.329286 -1.5791702,-3.088134 2.90267,-5.57688 4.82905,-2.6984 2.86612,3.395992 -2.87921,6.235151 -4.66855,3.027539 z m 2.11805,-47.71766 c 3.21283,-0.214024 3.99271,4.81778 0.98917,5.676042 -3.6717302,1.096195 -4.8324702,-5.606226 -0.98917,-5.676042 z m 10.14276,21.07573 c 2.7345,-0.716941 3.72308,-0.164945 4.19236,1.914649 0.10855,2.318331 -2.26054,5.144814 -4.91125,2.530495 -1.11055999,-1.44295 -1.02074999,-3.656831 0.71889,-4.445144 z" />
    <path
       id="path140-3"
       style="fill:#000000"
       d="m 11.125431,36.083031 c -0.82238,0.01229 -0.70122,0.304802 -0.21704,1.474846 4.07057,9.83683 4.76881,35.736446 1.26245,46.824015 -0.44724,1.414269 -0.79682,2.578169 -0.77721,2.585889 0.0196,0.008 2.09042,-0.179783 4.60179,-0.416512 2.51136,-0.23673 5.8724,-0.407879 7.46931,-0.380339 2.90346,0.05 2.9035,0.04992 2.34559,-0.713135 -1.62988,-2.229347 -2.97476,-13.620221 -2.78949,-23.626981 0.0259,-1.397339 0.0574,-4.008075 0.0698,-5.801713 0.0322,-4.663816 0.28321,-10.133654 0.46871,-10.214364 0.44452,-0.19339 6.83955,1.09701 9.07128,1.830379 3.12752,1.027759 4.54673,2.069231 5.44773,3.999239 3.1307,6.706264 -4.94534,9.964548 -10.09706,4.073654 -0.7549,-0.86321 -1.44891,-1.64656 -1.54203,-1.740979 -0.0931,-0.0944 -0.13648,0.20743 -0.0961,0.67076 0.0404,0.463329 -0.44109,3.133919 -0.53279,5.678206 -0.21134,5.849874 0.55394,6.157614 3.76618,7.842932 1.44141,0.75636 3.57227,6.716449 5.80947,15.678113 l -0.014,0.0036 c 0.12986,0.48135 0.24964,0.942031 0.37052,1.405599 2.2e-4,8.39e-4 3e-4,0.0017 5.2e-4,0.0026 0.56987,2.340616 1.08716,4.6935 1.61179,7.044531 0.24115,1.352303 0.35239,2.353205 0.29507,2.850989 -0.0104,0.09039 -0.0192,0.169266 -0.0119,0.240296 0.0517,0.497076 0.91159,0.599959 7.79436,1.422652 5.59798,0.669138 7.65203,0.896195 7.68739,1.388545 l 0.062,-0.01602 c 0.14228,-0.260557 -0.0621,-1.052871 -1.68104,-2.862358 -1.98686,-2.220741 -4.8395,-7.151185 -6.34069,-10.508919 -0.29617,-0.913265 -0.62959,-1.964171 -1.00408,-3.168799 0.005,-0.03749 0.0101,-0.07518 0.0207,-0.104386 l -0.0486,0.01292 c -0.7846,-2.525486 -1.72629,-5.63363 -2.88045,-9.519316 -1.19184,-4.012556 -1.19171,-4.012781 0.0532,-4.97334 9.44624,-7.288302 9.55735,-19.468571 0.23306,-25.549345 -4.30558,-2.807857 -11.58129,-4.335837 -24.03057,-5.047237 -1.75894,-0.10051 -4.10773,-0.247792 -5.21932,-0.327112 -0.50527,-0.03605 -0.88446,-0.06301 -1.15859,-0.05891 z m 14.19035,2.328024 c 0.86141,0.04371 1.68453,0.52596 2.13475,1.478462 1.46904,3.107917 -2.31744,5.957907 -4.61315,3.47214 -0.50948,-0.55165 -0.67692,-2.111133 -0.32298,-3.010152 0.52272,-1.327752 1.69385,-1.996645 2.80138,-1.94045 z m -7.65586,0.600997 c 0.30668,-2.95e-4 0.626,0.05896 0.94981,0.188619 2.39881,0.960509 2.27778,4.416578 -0.19224,5.491137 -1.3348,0.58068 -2.05989,0.397713 -2.9192,-0.736906 -1.53459,-2.02627 0.0148,-4.940788 2.16163,-4.94285 z m 14.86162,0.800467 c 0.62258,-0.006 1.25365,0.249007 1.78645,0.858346 0.92433,1.057099 1.02396,2.043369 0.33694,3.339848 -1.11958,2.112708 -3.54739,2.310652 -4.59559,0.374654 -1.18498,-2.18864 0.60446,-4.554824 2.4722,-4.572848 z m 6.64921,2.867009 c 0.97954,-0.04529 1.95847,0.454576 2.42931,1.60352 1.14215,2.787097 -2.17337,5.416422 -4.36718,3.463354 -0.61489,-0.547409 -0.88198,-1.386463 -0.76688,-2.409672 0.18441,-1.639258 1.44533,-2.598977 2.70475,-2.657202 z m -20.83232,4.312398 c 0.32717,-0.0077 0.66793,0.04829 1.01441,0.181384 2.70601,1.039429 1.89309,5.473239 -1.04025,5.673039 -1.15827,0.0789 -1.20108,0.06274 -2.0314,-0.767395 -1.85026,-1.849923 -0.23297,-5.033367 2.05724,-5.087028 z m 25.07754,1.780253 c 0.60228,-0.02984 1.22332,0.178604 1.7694,0.709001 0.94856,0.921329 1.13251,1.915705 0.60048,3.247864 -0.93906,2.351417 -3.6704,2.623454 -4.7532,0.473356 -1.06157,-2.107941 0.57647,-4.340686 2.38332,-4.430221 z m -24.82226,6.283338 c 0.80443,-0.02067 1.60089,0.369481 2.12493,1.337386 0.96054,1.774098 0.0718,4.093506 -1.74149,4.544425 -1.38199,0.34365 -2.38483,-0.180766 -2.98535,-1.561145 -0.97516,-2.241543 0.83216,-4.275198 2.60191,-4.320666 z m 23.83214,1.086238 c 0.29889,0.0062 0.6106,0.06868 0.92862,0.196888 2.38863,0.962959 2.36816,4.221736 -0.0331,5.266345 -1.32159,0.574939 -2.31638,0.343019 -3.02824,-0.7059 -1.42207,-2.095404 0.0404,-4.800849 2.13269,-4.757333 z m -12.37754,3.414262 c 1.41369,-0.03882 2.48377,1.01268 2.51819,2.672705 0.066,3.184397 -3.99868,4.319357 -5.17643,1.44539 -0.63987,-1.561398 0.10568,-3.346003 1.63349,-3.910872 0.35432,-0.131006 0.69851,-0.198264 1.02475,-0.207223 z m 7.52047,2.027267 c 0.77609,0.04837 1.24795,0.461219 1.72961,1.39733 1.62645,3.161007 -2.38437,6.209966 -4.46485,3.394108 -1.23486,-1.671368 -0.17998,-4.371279 1.84589,-4.724259 0.33795,-0.05888 0.63065,-0.0833 0.88935,-0.06718 z m -18.48828,1.267623 c 0.29488,0.01631 0.59843,0.08111 0.90434,0.201538 1.07079,0.421559 1.76181,2.361736 1.27847,3.589445 -1.06606,2.707877 -3.85936,3.016257 -4.93458,0.544669 -0.95185,-2.187953 0.68759,-4.449858 2.75177,-4.335652 z m 17.37919,6.238968 c 1.28551,0.0596 2.47951,1.106767 2.29388,2.857118 -0.30238,2.851315 -3.66674,3.569847 -4.77598,1.02009 -0.39368,-0.904917 -0.40665,-1.254766 -0.0775,-2.090727 0.50468,-1.281914 1.55977,-1.832836 2.55961,-1.786481 z m -17.17403,1.56934 c 0.14317,0.0098 0.28856,0.03067 0.43511,0.06305 2.38824,0.527629 2.40269,4.58381 0.0202,5.620328 -1.44247,0.62753 -2.78295,0.07006 -3.41065,-1.418518 -0.88905,-2.108322 0.80778,-4.411968 2.95538,-4.264856 z m 21.3323,12.151183 c 0.56088,-0.0046 1.13844,0.206705 1.64992,0.703504 1.54402,1.499688 0.57494,4.585667 -1.50709,4.799179 -1.251,0.128294 -1.94595,-0.294314 -2.47101,-1.501262 -0.88322,-2.030232 0.6455,-3.987739 2.32818,-4.001421 z M 18.992651,78.39311 c 1.17033,0.133727 2.0659,1.07055 2.21124,2.487704 0.33261,3.243457 -3.93371,4.862659 -5.19194,1.970422 -0.78434,-1.802908 -0.0106,-3.724322 1.73633,-4.311881 0.4335,-0.1458 0.85426,-0.19082 1.24437,-0.146245 z m 21.77889,12.809661 c 0.36832,-1.03612 1.40908,-1.653067 2.72849,-1.486493 3.01975,0.381274 3.59289,4.60245 0.6974,5.136986 -1.80492,0.333218 -3.38916,-0.775482 -3.55522,-2.488021 -0.0412,-0.424965 0.007,-0.817099 0.12933,-1.162472 z m -4.63441,-11.05685 c -0.73175,-1.682031 -0.01,-3.474571 1.61991,-4.022737 1.61774,-0.544099 3.04318,0.421835 3.22397,2.184688 0.31032,3.025998 -3.67001,4.536375 -4.84388,1.838049 z" />
    <path
       style="fill:#000000"
       d="m 57.119918,88.928961 c 2.51137,-0.23673 5.87269,-0.40791 7.4696,-0.38037 2.90346,0.05 2.90346,0.05 2.34555,-0.71305 -1.62988,-2.22935 -2.9747,-13.62028 -2.78943,-23.62705 0.0259,-1.39734 0.0571,-4.00815 0.0695,-5.80179 0.0322,-4.66382 0.28309,-10.13358 0.46859,-10.21429 0.44452,-0.19339 6.83994,1.09704 9.07167,1.83041 3.12753,1.02776 4.54634,2.06946 5.44734,3.99947 3.13071,6.70627 -4.94529,9.96447 -10.09702,4.07357 -0.7549,-0.86321 -1.44875,-1.64672 -1.54187,-1.74114 -0.0931,-0.0944 -0.13627,0.20745 -0.0959,0.67078 0.0404,0.46333 -0.44118,3.1338 -0.53288,5.67809 -0.21134,5.84988 0.55411,6.15767 3.76635,7.84299 1.73504,0.91044 4.46607,9.29171 7.18324,21.46911 l 0.85067,3.81242 2.56465,-1.13598 c 1.41056,-0.62479 3.50189,-1.32277 4.64741,-1.55105 1.14552,-0.22829 2.10301,-0.4665 2.12775,-0.52934 0.0247,-0.0628 -0.36604,-1.26411 -0.8684,-2.66949 -0.89411,-2.50131 -2.4492,-7.49545 -4.83434,-15.5255 -1.19184,-4.01256 -1.19184,-4.01256 0.0531,-4.97312 9.44625,-7.28831 9.55735,-19.46859 0.23305,-25.54937 -4.30558,-2.80786 -11.58148,-4.33613 -24.03078,-5.04753 -1.75894,-0.10051 -4.10756,-0.24765 -5.21916,-0.32697 -2.02108,-0.1442 -2.02108,-0.1442 -1.37551,1.41586 4.07057,9.83684 4.76893,35.73671 1.26257,46.82429 -0.44725,1.41427 -0.79715,2.57772 -0.77754,2.58544 0.0196,0.008 2.09041,-0.17966 4.60178,-0.41639 z m 0.0169,-3.70017 c -0.78434,-1.80291 -0.0106,-3.72427 1.73632,-4.31183 1.734,-0.5832 3.26188,0.45215 3.45566,2.34169 0.33262,3.24346 -3.93375,4.86238 -5.19198,1.97014 z m 22.35677,5.35836 c -0.97677,-2.47203 1.2103,-4.93146 3.56203,-4.0056 1.62493,0.63972 2.08571,2.56091 1.03959,4.33451 -1.10273,1.86956 -3.80937,1.6761 -4.60162,-0.32891 z m -22.03847,-13.28524 c -0.94832,-2.24888 1.04542,-4.72002 3.39019,-4.202 2.38824,0.52763 2.40294,4.58404 0.0204,5.62056 -1.44247,0.62753 -2.78284,0.07 -3.41054,-1.41858 z m 19.97103,5.81222 c -1.25258,-2.87925 2.05557,-5.62161 4.2317,-3.50795 1.64228,1.59513 0.61153,4.87733 -1.60301,5.10443 -1.33062,0.13646 -2.07021,-0.31272 -2.62869,-1.59648 z m -19.97256,-13.55002 c -1.08783,-2.50052 1.20885,-5.09732 3.65609,-4.13387 1.07079,0.42156 1.76181,2.36164 1.27847,3.58935 -1.06606,2.70788 -3.85934,3.01611 -4.93456,0.54452 z m 17.67343,6.38919 c -0.42259,-0.97139 -0.43652,-1.34693 -0.0832,-2.2443 1.23829,-3.14533 5.56434,-2.19126 5.2101,1.14906 -0.32459,3.06077 -3.93614,3.8323 -5.12687,1.09524 z m -18.0108,-14.19944 c -1.41842,-3.26043 3.05014,-6.08037 4.72708,-2.98307 0.96054,1.7741 0.0716,4.09333 -1.74164,4.54425 -1.38199,0.34365 -2.38487,-0.18078 -2.98539,-1.56116 z m 11.39846,4.2982 c -0.63987,-1.5614 0.1055,-3.34635 1.63331,-3.91122 1.88968,-0.6987 3.50105,0.42259 3.54341,2.4657 0.066,3.1844 -3.99894,4.3195 -5.17669,1.44553 z m 7.44348,2.70036 c -1.23487,-1.67137 -0.17992,-4.37106 1.84595,-4.72404 1.35181,-0.23552 1.97651,0.0817 2.61872,1.32985 1.62645,3.16101 -2.38423,6.21004 -4.46471,3.39418 z m -18.55248,-14.29577 c -2.11458,-2.1142 0.30024,-5.97009 3.07207,-4.90536 2.70602,1.03943 1.89275,5.47302 -1.04059,5.67282 -1.15827,0.0789 -1.20117,0.0627 -2.03149,-0.76744 z m 24.01207,8.82039 c -1.62522,-2.39475 0.51712,-5.58626 3.06132,-4.56057 2.38863,0.96296 2.36823,4.22185 -0.033,5.26646 -1.32159,0.57494 -2.3165,0.34303 -3.02836,-0.70589 z m -24.79488,-16.94437 c -1.75382,-2.31574 0.52081,-5.79155 3.11128,-4.75428 2.39881,0.96051 2.27783,4.4167 -0.19219,5.49126 -1.3348,0.58068 -2.05978,0.39764 -2.91909,-0.73698 z m 25.53464,9.24743 c -1.41543,-2.81059 1.96837,-5.84289 4.15268,-3.7213 0.94856,0.92133 1.1324,1.91591 0.60037,3.24807 -0.93906,2.35142 -3.67025,2.62333 -4.75305,0.47323 z m -18.19562,-9.8405 c -0.50948,-0.55165 -0.67667,-2.11104 -0.32273,-3.01006 0.92928,-2.36045 3.90674,-2.63912 4.93583,-0.46197 1.46904,3.10792 -2.31738,5.9578 -4.6131,3.47203 z m 7.21226,1.02359 c -1.57997,-2.91819 2.12739,-6.15195 4.25862,-3.71459 0.92433,1.0571 1.02378,2.04349 0.33675,3.33997 -1.11958,2.11271 -3.54717,2.31062 -4.59537,0.37462 z m 7.18352,3.36082 c -0.61489,-0.54741 -0.88188,-1.38649 -0.76678,-2.4097 0.32783,-2.91424 4.05749,-3.67948 5.13369,-1.05332 1.14216,2.7871 -2.1731,5.41609 -4.36691,3.46302 z"
       id="path139-1" />
    <g
       id="g10"
       transform="translate(-161.17725,128.43912)">
      <path
         id="path1-3"
         style="fill:#000000;stroke-width:1.01655"
         d="m 269.96137,-90.09609 c -11.64376,0.505408 -15.678,12.277129 -16.00809,27.351878 -0.003,7.229023 1.35542,13.469675 3.69256,18.024164 2.83505,5.524762 6.59911,8.070273 12.17962,7.991243 14.12145,0.19999 16.20477,-16.596078 16.47398,-20.584608 2.03743,-30.18537 -13.64588,-32.665817 -16.33807,-32.782677 z m 0.21032,2.153874 c 3.8433,0.06982 2.68264,6.772333 -0.98909,5.676139 -3.00353,-0.858261 -2.22373,-5.890164 0.98909,-5.676139 z m -6.84661,4.325317 c 5.0374,0.294025 1.36974,8.769867 -2.21382,4.894792 -1.33636,-1.680575 -0.0937,-4.977142 2.21382,-4.894792 z m 13.27258,0 c 2.30747,-0.08235 3.54967,3.214217 2.2133,4.894792 -3.58357,3.875075 -7.2507,-4.600767 -2.2133,-4.894792 z m -6.44664,3.27887 c 2.05885,0.03329 3.45753,2.482435 4.12791,4.134631 1.25034,3.674672 1.97751,7.656908 1.61696,7.854818 -1.78689,0.980812 -10.78578,-3.213247 -11.05204,-4.191475 0.25342,-0.963953 0.60499,-2.150334 0.92604,-3.093868 0.67038,-1.652197 2.32228,-4.670816 4.38113,-4.704106 z m -9.95908,4.536674 c 3.8433,0.06982 2.68264,6.772328 -0.98909,5.676139 -3.00354,-0.858267 -2.22374,-5.890166 0.98909,-5.676139 z m 19.87165,0.04754 c 3.21282,-0.214026 3.99264,4.817873 0.98909,5.67614 -3.67171,1.096189 -4.83238,-5.60632 -0.98909,-5.67614 z m -15.53238,4.559929 c 0.40933,0.03662 2.19655,0.871647 5.19503,2.535762 3.83194,2.126636 6.26058,2.404138 6.45232,2.786393 0.12161,0.242511 0.12492,1.169707 0.11162,1.488799 -0.0653,0.234379 -1.00086,0.412123 -2.52801,-0.332797 -2.7679,-1.35014 -9.2356,-4.620291 -9.34258,-5.046203 z m 16.53181,3.753259 c 0.47666,0.01631 1.04161,0.114619 1.7141,0.290938 1.71132,0.775473 1.79992,2.953404 0.70745,4.37286 -2.60755,2.571755 -4.93851,-0.208663 -4.83174,-2.489254 0.34623,-1.534303 0.9802,-2.223466 2.41019,-2.174544 z m -22.77691,0.278536 c 0.48455,0.01658 1.05891,0.116354 1.74253,0.295589 1.73964,0.788312 1.8299,3.002257 0.71934,4.445207 -2.65071,2.614316 -5.01988,-0.212266 -4.91133,-2.530595 0.35196,-1.559694 0.99581,-2.259931 2.44946,-2.210201 z m 8.34161,0.12454 c 1.40643,0.02674 2.69503,1.552147 1.96009,3.104203 -0.51475,1.087025 -2.13961,1.398602 -3.13314,0.600481 -1.0787,-0.866559 -1.17099,-2.312969 -0.20206,-3.177584 0.42442,-0.378722 0.9063,-0.536 1.37511,-0.5271 z m 6.47868,3.362586 c 0.18065,-4.1e-4 0.36554,0.02304 0.5519,0.07441 1.51651,0.417996 2.19046,2.172354 1.26556,3.294372 -1.21225,1.470607 -3.09152,0.989159 -3.72329,-0.953947 -0.39757,-1.222883 0.64133,-2.411939 1.90583,-2.414839 z m -9.5958,1.538407 c 5.30105,0.887115 11.1003,5.077578 12.46384,5.879228 -0.55928,3.547431 -1.77823,8.906444 -6.17338,9.365093 -3.36787,-0.01169 -5.31556,-4.069008 -5.51841,-7.082545 -0.52897,-2.687745 -0.78335,-5.425171 -0.77205,-8.161776 z m -4.59042,3.374471 c 0.14868,-0.0039 0.30062,0.0036 0.45372,0.02429 5.54096,0.58149 1.29347,8.335966 -2.36575,4.483964 -1.95061,-1.747771 -0.31808,-4.450082 1.91203,-4.508252 z m 22.08186,0.570508 c 2.23011,0.05817 3.86266,2.760481 1.91203,4.508252 -3.65921,3.852002 -7.90619,-3.902473 -2.36523,-4.483964 0.1531,-0.02069 0.30452,-0.02819 0.4532,-0.02429 z m -19.48512,7.251754 c 3.67009,0.144553 3.73717,6.552602 -0.58807,5.532995 -3.43858,-0.415673 -3.24678,-5.538481 0.22169,-5.527311 0.12587,-0.0089 0.24798,-0.01038 0.36638,-0.0057 z m 16.31839,1.568896 c 0.1184,-0.0046 0.24,-0.0026 0.36587,0.0062 3.46845,-0.01118 3.66027,5.111639 0.22169,5.527311 -4.32524,1.019607 -4.25765,-5.388958 -0.58756,-5.533512 z m -7.92252,4.847249 c 1.84394,0.0072 3.62299,1.846693 2.53732,3.969784 -0.0488,0.11639 -0.102,0.226408 -0.1602,0.329696 l -5.2e-4,-5.17e-4 c -1.78934,3.20761 -7.53456,0.368782 -4.66845,-3.027206 0.602,-0.899524 1.4537,-1.275015 2.29185,-1.271757 z" />
      <path
         id="path136-1-9"
         style="fill:#000000;stroke-width:0.770909"
         d="m 279.37634,-110.71204 c -0.48823,0.0881 -5.63453,4.70459 -7.97484,7.50639 -1.58544,1.89809 -4.04197,6.221746 -4.04197,6.221746 0,0 2.9218,2.662904 4.24603,2.966265 1.32422,0.303366 1.88731,0.151749 2.93481,-0.945006 5.08259,-5.321575 9.93195,-6.477865 9.20216,-6.993905 -4.11824,-4.47741 -3.91288,-8.66967 -4.36619,-8.75549 z m -0.94509,5.12814 c 1.16162,0.2295 1.65821,1.63532 1.25785,2.66455 -0.35771,1.40247 -2.29834,2.09385 -3.40441,1.11505 -0.93974,-0.77131 -0.80018,-2.29482 0.0704,-3.06441 0.52712,-0.54395 1.31598,-0.88433 2.07617,-0.71519 z m -4.69827,4.53695 c 1.28415,0.088 1.97622,1.614601 1.49772,2.729526 -0.47996,1.342412 -2.45165,2.100448 -3.53847,1.016165 -0.74379,-0.781885 -0.7263,-2.11647 0.0589,-2.869461 0.4766,-0.5788 1.22064,-0.9648 1.98189,-0.87623 z" />
    </g>
    <path
       d="m -34.0186,32.872853 c -8.63728,1.56738 -17.55998,2.50841 -26.28108,1.04025 0.98671,3.32164 2.61886,6.74294 2.56677,10.38489 0.81031,11.26729 0.48957,22.61149 -1.17254,33.78967 -0.87742,7.13059 -2.68076,14.32026 -6.71122,20.35897 2.35814,0.56359 5.59925,0.65467 8.1995,1.574057 2.97728,1.28132 7.47733,3.08269 7.52409,-1.934757 0.9599,-6.68732 1.08407,-13.46785 1.52291,-20.20394 -0.96751,-4.31719 3.04701,-6.63979 6.13192,-8.62221 4.28835,-2.57449 8.33678,-5.74256 13.09791,-7.4011 1.94223,-0.70841 4.89769,2.22673 3.20807,-1.32653 -1.19162,-3.69059 -1.96228,-7.57781 -3.38584,-11.15591 -4.95082,5.25396 -11.55382,8.45993 -17.48937,12.42405 -3.08811,0.75756 -0.33255,-3.53021 1.53996,-3.49695 4.63546,-3.0746 9.92136,-5.50079 13.56713,-9.82369 0.64908,-1.50543 -3.05927,1.77686 -3.95893,2.0345 -3.94946,2.36771 -7.82178,4.91496 -11.98067,6.89984 -0.44508,-4.35618 -0.2636,-8.83462 0.26252,-13.18473 2.57045,-1.30971 5.75434,-0.8825 8.59017,-0.90847 3.0463,0.0776 6.07238,1.02301 8.61963,2.68666 -0.95553,-4.42476 -2.40796,-8.72306 -3.69641,-13.0576 z m -3.22461,2.805 c 4.5869,0.17545 2.26068,8.11518 -1.66708,5.41775 -1.86517,-1.63242 -1.01842,-5.34687 1.66708,-5.41775 z m -7.39593,0.65577 c 4.23937,0.55901 1.66793,7.6601 -1.90686,5.44515 -2.4476,-1.67756 -0.9855,-5.5606 1.90686,-5.44515 z m -7.58248,1.00046 c 4.62611,0.43641 1.68656,7.9087 -1.95595,5.27151 -1.97226,-1.72945 -0.82172,-5.38313 1.95595,-5.27151 z m 0.10025,7.76231 c 3.61759,0.0595 3.06361,6.31388 -0.5364,5.75934 -3.46402,-0.22602 -2.63108,-5.83448 0.5364,-5.75934 z m -0.078,7.93027 c 4.37021,0.3176 2.3303,7.50845 -1.51308,5.56504 -2.35608,-1.22542 -1.18007,-5.72908 1.51308,-5.56504 z m 20.15278,2.49752 c 3.97888,0.33154 2.35213,6.98833 -1.35496,5.79913 -2.8253,-1.16619 -1.7325,-6.05354 1.35496,-5.79913 z m -7.15926,4.01836 c 4.79854,0.15614 1.53077,8.39345 -2.03553,5.06894 -1.8434,-1.75627 -0.60395,-5.1291 2.03553,-5.06894 z m -13.10566,1.94252 c 5.58504,0.50872 0.49776,9.24838 -2.60035,4.37493 -0.92728,-1.84926 0.4234,-4.43937 2.60035,-4.37493 z m 6.54637,2.25361 c 4.06386,-0.15715 3.23184,6.64273 -0.61391,5.84822 -3.03595,-0.89818 -2.43451,-5.47949 0.61391,-5.84822 z m -7.15408,6.44508 c 4.63411,-0.1143 2.31092,7.47594 -1.50275,4.86586 -2.17461,-1.35561 -1.13666,-5.05064 1.50275,-4.86586 z m -1.16634,7.91683 c 0.23896,-0.0229 0.48941,-0.0182 0.74828,0.017 5.28439,1.0858 -0.5008,8.46832 -2.93833,3.42718 -0.58763,-1.77754 0.51732,-3.28407 2.19005,-3.44423 z m -1.25729,7.10241 c 0.1593,-0.0122 0.32557,-0.0114 0.49817,0.004 5.0877,0.23242 2.21686,8.17154 -1.74357,4.7811 -1.99331,-1.49914 -1.14399,-4.60092 1.2454,-4.78472 z m -1.74511,7.13859 c 4.59728,-0.0123 3.14389,7.23592 -0.99425,5.14852 -2.82696,-1.09386 -2.1929,-5.35349 0.99425,-5.14852 z"
       style="fill:#000000"
       id="path1-8" />
    <g
       id="g9"
       transform="translate(-159.58974,124.05666)">
      <path
         id="path4"
         style="fill:#000000;stroke-width:0.771029"
         d="m 323.74297,-95.694009 c -3.58613,0.06099 -7.13265,1.272786 -10.33795,3.931017 -9.94897,8.250938 -7.93232,28.153919 3.18514,31.435765 12.86742,3.798434 20.72382,-11.202994 11.10933,-21.212577 -2.41722,-2.516516 -2.23957,-2.550259 -5.44949,1.042326 -1.55426,1.739486 -3.06415,3.39804 -3.35526,3.685578 -0.62101,0.613505 -0.60187,0.877819 0.0625,0.867794 3.29705,-0.0498 5.06694,5.480897 1.9934,6.46032 -3.59409,1.145288 -7.34188,-6.305352 -5.29766,-10.903328 5.79246,-13.028884 24.90529,-3.357253 25.61694,12.966048 0.48825,11.199514 -6.1445,20.399321 -17.76926,26.383939 0.0676,-3.804909 0.1447,-7.582428 0.65464,-11.107725 0.42641,-2.947864 1.33196,-5.736276 2.05754,-8.152891 0,0 -4.36912,0.681445 -6.39537,0.712811 -2.02623,0.03137 -5.70566,-0.457809 -5.70566,-0.457809 0.16515,1.653853 0.85988,4.245594 1.13595,7.330509 0.35927,4.01813 0.26659,8.786656 0.006,12.528565 -0.0583,0.840149 -0.39801,1.994148 -0.57456,2.758802 -2.97717,0.955582 -6.15878,1.752633 -9.53308,2.371119 -6.28322,0.658664 -8.20217,-0.0506 -9.79885,0.83553 -0.92346,0.347379 -1.44682,4.072027 -2.64604,8.171616 -1.27912,4.372905 -1.16624,7.91821 -1.16624,7.91821 8.47997,-3.634834 17.84785,-7.781634 26.76206,-10.569432 22.01491,-6.466442 34.0696,-20.532741 34.05511,-37.396609 -0.0115,-13.43089 -12.41221,-28.486749 -27.07125,-29.555746 h -4e-4 c -0.51294,-0.03742 -1.02578,-0.05265 -1.53798,-0.04384 z m 2.38705,2.74008 c 1.46976,0.01532 2.80828,1.94168 1.70373,3.622228 -0.38303,0.582807 -1.50657,0.966401 -2.1978,0.750652 -1.33473,-0.416558 -1.88408,-2.5764 -0.93393,-3.671225 0.43337,-0.499443 0.93808,-0.707057 1.428,-0.701655 z m -6.1579,0.553833 c 0.12555,-0.01275 0.24794,-0.01147 0.36656,0.0028 1.66085,0.191417 2.58304,2.827222 1.04352,4.073649 -0.14041,0.113657 -0.53143,0.248337 -0.8686,0.298837 -2.44971,0.367864 -3.29312,-3.539563 -0.92677,-4.293599 0.1312,-0.04173 0.25975,-0.06815 0.38529,-0.08089 z m 11.97354,1.365055 c 0.21336,0.0028 0.44039,0.04934 0.68013,0.139054 1.38791,0.519319 1.93148,2.263337 1.09173,3.501894 -1.45066,2.139792 -4.53144,-0.174109 -3.32936,-2.500612 0.39717,-0.768711 0.91743,-1.149435 1.5575,-1.140336 z m -16.67872,2.254376 c 1.52451,0.04944 2.60346,1.920548 1.66867,3.402287 -1.41896,2.24924 -4.5874,0.20899 -3.48874,-2.246405 0.29493,-0.659153 0.50793,-0.856266 1.14431,-1.059055 0.23143,-0.07365 0.45797,-0.103367 0.67576,-0.09642 z m 22.03654,1.829636 c 0.54813,0.03128 1.09488,0.295086 1.48061,0.827173 0.78698,1.085607 0.52071,2.800742 -0.51399,3.31144 -1.63123,0.805151 -3.30638,-0.613606 -2.98073,-2.524927 0.18275,-1.072702 1.10053,-1.665883 2.01411,-1.613686 z m -25.52329,3.232948 c 1.45725,0.07016 2.63447,1.908964 1.88143,3.366426 -1.00348,1.942258 -3.95515,0.980654 -3.76208,-1.225607 0.0754,-0.861144 0.69203,-1.880448 1.24394,-2.056346 0.2148,-0.06851 0.42851,-0.09449 0.63671,-0.08447 z m 29.51966,1.806937 c 1.44778,0.08603 2.68656,1.985989 1.61367,3.618229 -0.47362,0.720696 -1.58248,0.989963 -2.37947,0.578138 -1.32665,-0.685458 -1.68343,-2.590744 -0.67417,-3.600702 0.4512,-0.451346 0.95738,-0.624346 1.43997,-0.595665 z m -16.17788,2.677913 c 0.63461,-0.0266 1.31572,0.261985 1.81729,0.953863 0.60792,0.838637 0.57911,1.963316 -0.0693,2.710593 -1.24319,1.432559 -3.12898,0.721118 -3.48954,-1.316445 -0.24505,-1.384729 0.68393,-2.303674 1.74159,-2.348011 z m -13.92351,1.768277 c 1.38744,0.08548 2.64379,1.862399 1.74836,3.444918 -0.47285,0.835702 -1.58667,1.206459 -2.48189,0.825971 -1.34864,-0.573195 -1.69583,-2.648839 -0.62277,-3.722633 0.41679,-0.417273 0.89382,-0.57678 1.3563,-0.548256 z m 33.42757,1.594966 c 1.51358,0.03265 2.61358,1.823702 1.80534,3.387931 -0.57421,1.111292 -2.16858,1.334282 -3.07358,0.429918 -1.24244,-1.241624 -0.9216,-3.233713 0.59886,-3.718243 0.22876,-0.07292 0.45316,-0.104238 0.66938,-0.09961 z m -17.34252,2.583086 c 0.42661,0.03045 0.86678,0.214841 1.26306,0.593675 0.9868,0.943355 0.93402,2.577266 -0.11237,3.476395 -0.94758,0.81423 -2.63669,0.124321 -3.07676,-1.256686 -0.51211,-1.607265 0.6462,-2.90458 1.92607,-2.813384 z m -14.19684,1.938011 c 1.58239,0.08982 2.60257,2.370415 1.36028,3.801924 -0.59882,0.690033 -0.60115,0.690819 -1.57424,0.605628 -2.18827,-0.191501 -2.57662,-3.573884 -0.49407,-4.303162 0.24404,-0.08544 0.48196,-0.117266 0.70803,-0.10439 z m 33.33512,2.21533 c 1.70288,0.09347 2.82215,2.708843 1.69378,3.957309 -0.60058,0.664527 -1.80075,0.858757 -2.63768,0.426333 -2.07839,-1.073897 -1.33873,-4.508927 0.9439,-4.383642 z m -21.93254,1.3025 c 1.64981,0.117382 2.68929,2.422081 1.38696,3.852126 -0.40921,0.449323 -1.52926,0.700107 -2.09859,0.47016 -1.75638,-0.709419 -1.77586,-3.672801 -0.0279,-4.229847 0.25555,-0.08145 0.5038,-0.109248 0.73951,-0.09244 z m -6.06985,0.271741 c 0.19899,0.02098 0.40494,0.0724 0.61399,0.158578 1.33317,0.54959 1.79141,2.202207 0.95387,3.437745 -0.92335,1.361906 -2.97378,0.900173 -3.51265,-0.790909 -0.50733,-1.591967 0.55175,-2.952117 1.94479,-2.805414 z m 27.63663,4.551385 c 1.24037,0 2.48074,0.827328 2.48069,2.482285 -0.003,0.689912 -0.28019,1.349042 -0.76978,1.824857 -0.5284,1.0085 -4.04408,1.857073 -4.1916,-1.824857 -4e-5,-1.654956 1.24035,-2.482285 2.48069,-2.482285 z m -26.5457,4.980506 c 0.51861,0.0095 1.3992,0.249935 1.70891,0.520762 1.65118,1.443789 0.77697,3.946078 -1.00527,4.03182 -0.2546,0.01225 -0.52785,-0.02501 -0.8148,-0.121524 -1.66896,-0.561331 -2.06395,-3.071812 -0.6407,-4.071664 0.18892,-0.132717 0.36381,-0.260816 0.38848,-0.284487 0.0579,-0.05559 0.19051,-0.07807 0.36338,-0.07491 z m 24.36584,1.48459 c 3.40255,-2.42e-4 3.40254,5.310259 0,5.310017 -1.43686,-1.24e-4 -2.60165,-1.188636 -2.60182,-2.654809 -4e-5,-1.466326 1.16481,-2.655085 2.60182,-2.655208 z m -24.19929,4.822326 c 1.35308,-0.01015 2.7371,1.433446 2.05316,3.131344 -0.39816,0.988431 -1.16046,1.43118 -1.9129,1.406893 -0.96747,-0.03122 -1.91924,-0.834653 -2.06195,-2.24322 -0.0354,-0.349213 0.0965,-0.919406 0.29286,-1.267439 0.40514,-0.717918 1.01378,-1.022965 1.62883,-1.027578 z m 20.51769,1.160258 c 1.43701,1.2e-4 2.60186,1.18888 2.60182,2.655208 4e-5,1.466329 -1.16481,2.655089 -2.60182,2.655208 -3.40261,2.32e-4 -3.40261,-5.310648 0,-5.310416 z m -4.54182,4.691637 c 0.14344,-0.0045 0.29297,0.0061 0.44864,0.03267 1.58149,0.269457 2.42599,2.100578 1.6846,3.6537 -0.51962,1.088591 -1.72634,1.455735 -2.85959,0.870194 -2.15044,-1.111079 -1.42549,-4.488534 0.72635,-4.556566 z m -16.09062,0.642685 c 0.81864,-0.03444 1.78815,0.544861 2.13365,1.422434 0.64644,1.641992 -0.42285,3.147658 -1.70493,3.179554 -0.42736,0.01063 -0.87836,-0.14247 -1.29732,-0.508808 -1.2733,-1.113371 -1.21595,-2.82398 0.12909,-3.842561 0.21074,-0.159587 0.46663,-0.239139 0.73951,-0.250619 z m 11.31491,3.632583 c 0.14822,-0.01732 0.29988,-0.01664 0.45183,0.0032 0.40522,0.05311 0.81408,0.244168 1.17301,0.602841 0.93069,0.930142 0.95387,2.518366 0.0482,3.306658 -1.26758,1.10344 -3.02269,0.336478 -3.3473,-1.462676 -0.24068,-1.333713 0.63669,-2.328767 1.67425,-2.45001 z m -4.93229,2.973163 c 0.31614,0.01661 0.64037,0.110535 0.94869,0.292456 1.26925,0.748958 1.47409,2.814692 0.37094,3.738168 -1.46691,1.228016 -3.67218,-0.351156 -3.32618,-2.381877 0.17937,-1.052652 1.05814,-1.698563 2.00655,-1.648747 z m -5.83118,2.098985 c 0.093,-0.0033 0.18503,0.0017 0.27532,0.01434 1.565,0.220182 2.66088,2.748897 1.16145,4.061304 -0.64788,0.567088 -0.50066,0.518491 -1.3535,0.443863 -1.99129,-0.174265 -2.6575,-3.182182 -0.94032,-4.245384 0.28872,-0.178769 0.57801,-0.264074 0.85705,-0.274128 z m -5.25902,2.060734 c 1.18015,-1.2e-5 2.22411,0.803689 2.2241,1.983836 1e-5,1.180146 -0.9567,2.136848 -2.13684,2.136837 -2.79412,2.7e-5 -2.88138,-4.1207 -0.0872,-4.120673 z m -5.21958,1.34912 c 1.77366,-0.0048 2.62481,1.99293 1.71968,3.615848 -0.67265,0.992183 -2.0015,1.114943 -2.85324,0.263767 -1.53541,-1.534352 -0.95686,-3.886798 0.767,-3.851325 0.12621,-0.01882 0.24833,-0.02797 0.36656,-0.02829 z m -5.90807,1.441559 c 1.34902,-6.6e-5 2.44268,1.093426 2.44285,2.44244 1.4e-4,3.194264 -4.88584,3.194268 -4.88569,0 1.7e-4,-1.34901 1.09384,-2.442502 2.44284,-2.44244 z m -6.11248,2.256766 c 3.19379,3.7e-4 3.19379,4.885308 0,4.885678 -1.34916,6.1e-5 -2.44289,-1.093673 -2.44283,-2.442839 -6e-5,-1.349165 1.09367,-2.4429 2.44283,-2.442839 z" />
    </g>
    <path
       id="path9"
       style="fill:#000000"
       d="m 209.76605,33.210522 c 3.35007,-0.04872 6.67115,1.088838 8.88318,3.218408 7.61099,7.327263 7.116,41.523033 18.1498,51.312114 0.84694,0.751399 1.5514,1.396417 1.5658,1.432987 0.0144,0.0366 -1.13805,0.608214 -2.56109,1.270724 -3.846,1.790548 -8.5187,5.024034 -10.03866,6.946862 -0.59468,0.7523 -0.87392,0.695847 -1.45934,-0.295072 -0.76104,-1.288179 -3.33488,-9.977762 -3.98477,-13.452409 -0.92451,-4.942835 -0.6265,-4.433022 -3.73518,-6.38359 -1.5128,-0.949239 -4.44128,-2.78774 -6.50761,-4.085538 -6.05461,-3.802727 -6.4284,-4.018053 -6.52828,-3.755843 -0.557,1.462358 -0.47644,11.587866 0.10903,13.695804 0.51566,1.856619 0.73624,1.782934 -2.98844,0.994255 -1.69736,-0.3594 -4.67784,-0.79619 -6.62337,-0.971 -4.09503,-0.36795 -3.95839,-0.334301 -3.61322,-0.902271 1.39909,-2.302207 4.53982,-16.853724 5.71231,-26.466085 2.00426,-16.431063 3.33235,-19.591323 9.13536,-21.739241 1.43316,-0.530465 2.96173,-0.797961 4.48448,-0.820105 z m 1.18856,1.916679 c -2.05363,-0.0426 -3.17526,2.228956 -2.07532,4.202844 0.94086,1.688399 3.09717,2.025937 4.21834,0.659908 1.5042,-1.832738 0.19019,-4.814392 -2.14302,-4.862752 z m -7.24142,2.424658 c -1.94874,0.09916 -2.99913,2.444261 -1.87275,4.507219 0.98739,1.808378 3.88603,1.548301 4.54391,-0.407727 0.6617,-1.967398 -0.41001,-3.89792 -2.26963,-4.08864 -0.13752,-0.0141 -0.27161,-0.01746 -0.40153,-0.01085 z m 13.67049,2.054655 c -1.44717,-0.12798 -2.96005,1.051484 -2.73472,3.054594 0.28484,2.532068 3.1163,3.600639 4.64106,1.751831 0.64022,-0.776289 0.72032,-1.805213 0.23823,-3.059761 -0.43132,-1.122498 -1.27627,-1.669876 -2.14457,-1.746664 z m -7.06365,3.662826 c -2.06901,0.203495 -3.72283,3.087362 -4.54495,8.112166 -0.72116,4.407715 -1.08958,3.869883 5.19659,7.579899 5.9733,3.525366 5.92174,3.508472 5.71903,1.871204 -0.0785,-0.63379 -0.18644,-1.711093 -0.2403,-2.393653 -0.65594,-8.314411 -2.36532,-13.797828 -4.63693,-14.875577 -0.51659,-0.245096 -1.01598,-0.341 -1.49344,-0.294039 z m -8.58398,1.756482 c -1.54085,-0.07509 -2.75565,1.276543 -2.54144,3.180684 0.28329,2.518297 3.24885,3.533521 4.68705,1.604553 1.03058,-1.382239 0.47824,-3.76879 -1.04025,-4.494299 -0.37676,-0.180011 -0.74977,-0.27361 -1.10536,-0.290938 z m 17.52245,2.213818 c -1.15001,0.04287 -2.22074,0.829775 -2.36161,2.203483 -0.29473,2.873957 2.57322,4.582106 4.48344,2.670638 0.8079,-0.808429 0.95441,-2.515839 0.30489,-3.550688 -0.58991,-0.939884 -1.53227,-1.356779 -2.42672,-1.323433 z m -18.70222,5.413106 c -1.91691,-0.123014 -3.24928,2.241487 -2.06964,4.35839 1.08259,1.942748 3.41222,1.97351 4.44882,0.05891 0.84624,-1.562998 0.15179,-3.473825 -1.52755,-4.204394 -0.29209,-0.127069 -0.57779,-0.195333 -0.85163,-0.212906 z m 20.10575,2.34611 c -0.30814,-0.01194 -0.62979,0.03963 -0.95705,0.168465 -2.95371,1.162849 -1.50364,6.132793 1.59629,5.470984 0.4328,-0.0924 0.98212,-0.359002 1.22059,-0.592212 1.79679,-1.757532 0.29713,-4.963627 -1.85983,-5.047237 z m -15.29002,2.831869 c -0.0735,-0.0072 -0.13085,0.0012 -0.17674,0.02222 -0.208,0.0951 -0.37205,0.940554 -0.34416,1.061434 0.25847,1.120059 12.07751,7.61971 12.28814,7.31945 0.0679,-0.0968 0.0749,-0.991681 -0.0305,-1.22008 -0.24124,-0.52305 -1.32378,-1.152364 -6.14175,-4.062801 -3.77005,-2.277422 -5.08036,-3.070106 -5.595,-3.120223 z m -5.72782,2.80603 c -0.64505,-0.05161 -1.32581,0.165142 -1.93735,0.759127 -1.66565,1.617828 -0.52616,4.741268 1.81746,4.981608 1.12522,0.11539 1.3852,-0.0016 2.10427,-0.951363 1.56183,-2.062251 -0.0492,-4.634531 -1.98438,-4.789372 z m 22.30458,2.350761 c -0.27791,-0.0019 -0.56444,0.04911 -0.85317,0.162781 -1.59749,0.628909 -2.11614,2.066008 -1.39992,3.878316 0.79282,2.005638 3.51595,2.3603 4.54753,0.592212 1.16974,-2.004921 -0.34907,-4.620038 -2.29444,-4.633309 z m -14.87764,0.347782 c -0.58945,-0.0122 -1.19548,0.203628 -1.7291,0.72192 -1.21823,1.183269 -1.10305,3.162126 0.25322,4.348055 1.24917,1.092269 3.29312,0.66654 3.94033,-0.821139 0.92403,-2.124065 -0.69609,-4.212245 -2.46445,-4.248836 z m 8.14472,4.602303 c -1.58989,0.004 -2.89561,1.631132 -2.39572,3.304708 0.79432,2.659267 3.15718,3.318461 4.68137,1.305863 1.1629,-1.535538 0.31566,-3.936202 -1.59112,-4.508251 -0.23428,-0.07029 -0.4674,-0.102889 -0.69453,-0.10232 z m -16.89509,0.583427 c -0.64124,0.06158 -1.26986,0.415788 -1.757,1.16427 -1.01345,1.557139 -0.0899,4.202985 1.60972,4.611605 0.91314,0.21955 2.3337,-0.374 2.77916,-1.161169 1.3293,-2.349321 -0.70816,-4.799437 -2.63188,-4.614706 z m 25.36486,2.319755 c -0.30142,0.0033 -0.61526,0.06249 -0.93431,0.188102 -2.3717,0.933719 -2.10709,4.540105 0.39481,5.381584 1.18611,0.39893 1.8524,0.174149 2.6665,-0.90072 1.49004,-1.967322 -0.017,-4.691791 -2.127,-4.668966 z m -26.30124,5.25756 c -0.64302,0.01504 -1.29979,0.296402 -1.85983,0.936894 -0.66508,0.760619 -0.74361,1.827907 -0.22996,3.132625 0.78181,1.985828 3.46631,2.266028 4.516,0.471289 1.3072,-2.235012 -0.49713,-4.585933 -2.42621,-4.540808 z m 28.20965,2.251026 c -0.62047,-0.01664 -1.24934,0.225573 -1.77715,0.823722 -0.77009,0.872709 -0.89281,1.804037 -0.40411,3.062345 0.8524,2.194878 3.47838,2.567088 4.59868,0.65164 1.23169,-2.1059 -0.556,-4.487786 -2.41742,-4.537707 z m 2.81068,7.360791 c -1.64867,0.01805 -3.0425,1.711279 -2.17093,3.838525 0.77726,1.897028 2.78939,2.51437 4.10156,1.258321 1.02924,-0.985209 1.16807,-2.907204 0.28681,-3.966683 -0.66585,-0.800496 -1.46805,-1.138367 -2.21744,-1.130163 z" />
  </g>
</svg>
